<svg xmlns="http://www.w3.org/2000/svg" xmlns:xlink="http://www.w3.org/1999/xlink" width="1024" height="1029" viewBox="0 0 1024 1029">
<path fill="#F4F3F1" d="M0 0L1024 0L1024 1029L0 1029Z"></path>
<path fill="#14264D" d="M359.673 249.301L441.189 249.392C440.634 265.808 441.88 284.233 442.453 300.684C443.18 316.293 443.602 331.924 444.339 347.531C444.652 354.134 446.047 360.82 446.225 367.4C446.843 390.149 447.215 412.909 447.701 435.661L449.748 527.958C449.974 545.478 450.243 558.924 447.924 576.413C446.347 588.307 448.046 604.84 447.759 617.099C446.914 653.261 466.55 666.353 497.008 679.682C483.894 679.227 470.163 679.413 456.981 679.423L359.535 679.435L359.657 672.367C370.448 670.81 378.543 669.033 387.417 662.248C403.873 649.664 401.832 634.53 401.687 616.025L401.616 584.953L401.604 470.544L401.612 347.703L401.605 311.313C401.603 305.876 401.847 295.818 401.271 290.656C400.511 283.656 397.806 277.009 393.463 271.467C384.695 260.494 372.777 257.883 359.566 256.467L359.673 249.301Z"></path>
<path fill="#C0A261" d="M482.146 249.371C503.5 249.711 525.073 248.905 546.382 249.643C615.746 252.046 667.989 296.182 663.737 368.895C659.704 437.867 603.439 478.306 537.248 474.883C517.815 474.323 498.806 469.047 480.59 462.64L480.621 450.169C491.922 451.09 503.185 450.62 514.476 450.616C539.327 450.606 561.695 443.816 579.663 426.04C597.463 408.398 607.566 384.434 607.767 359.374C607.733 336.776 598.581 310.989 582.261 295.014C553.768 267.125 518.478 270.658 482.33 270.897L482.146 249.371Z"></path>
<path fill="#C0A261" d="M460.553 246.29C476.568 246.494 473.185 260.321 473.028 271.832L472.625 303.221C472.427 318.957 472.273 334.862 471.668 350.603C471.57 353.154 470.195 357.385 469.793 360.046C469.345 363.012 469.383 366.422 469.399 369.446C469.68 420.896 471.364 472.328 472.481 523.759C472.767 536.959 473.302 550.051 473.329 563.26C480.568 574.539 473.14 623.623 482.416 625.343C501.579 628.898 541.238 602.182 560.088 613.685C578.211 624.745 580.324 654.919 570.466 672.097C566.926 677.455 561.254 682.155 554.941 684.013C533.884 688.916 504.833 672.903 486.624 664.389C463.568 653.608 456.465 638.075 456.68 613.902C456.801 600.317 455.505 585.512 456.754 571.925C457.329 565.666 459.404 563.892 459.266 555.958L456.772 422.591C456.356 403.195 455.941 383.757 455.562 364.36C455.482 360.265 454.186 355.86 453.694 351.81C453.153 347.361 453.083 342.465 452.92 337.968L451.232 285.807C450.903 276.532 450.418 267.2 450.327 257.927C450.258 250.843 454.153 247.679 460.553 246.29Z"></path>
<path fill="#F4F3F1" d="M563.873 648.956C564.524 646.991 564.086 645.621 564.771 643.23L565.647 643.519C566.001 653.188 563.154 677.07 549.35 675.522C525.427 672.84 500.831 662.202 480.589 649.766L481.566 648.988C493.021 657.364 529.985 668.834 544.695 671.438C548.037 672.03 552.074 672.495 554.79 670.139C560.823 664.905 562.831 656.313 563.873 648.956Z"></path>
<path fill="#F4F3F1" d="M546.574 628.352L547.342 628.26C549.392 628.022 551.803 627.544 553.439 628.834C548.751 630.83 500.072 634.936 491.735 635.698C489.635 636 488.256 636.408 486.279 635.785L486.291 635.213C489.305 634.037 502.506 632.952 506.715 632.503C519.99 631.018 533.277 629.634 546.574 628.352Z"></path>
<path fill="#F4F3F1" d="M549.274 635.381C551.02 635.183 554.674 634.397 555.651 636.052C551.954 637.752 506.258 641.174 498.896 641.738C496.959 642.004 495.231 642.487 493.493 641.69L493.632 641.056C496.569 639.934 511.204 638.947 515.179 638.589L549.274 635.381Z"></path>
<path fill="#F4F3F1" d="M547.526 642.829C549.351 642.6 555.776 641.949 556.68 643.547C552.881 644.45 545.291 644.848 541.141 645.157L514.134 647.096C511.039 647.307 506.283 647.954 503.525 647.154L503.446 646.632C506.008 645.807 515.182 645.321 518.28 645.08L547.526 642.829Z"></path>
<path fill="#F4F3F1" d="M545.565 650.41C550.18 650.164 552.077 649.837 556.584 651.04C554.239 652.369 529.348 652.9 524.583 653.156C522.019 653.244 516.235 653.498 513.935 652.87C519.477 650.838 538.612 650.7 545.565 650.41Z"></path>
<path fill="#F4F3F1" d="M538.739 657.424C543.626 657.287 550.86 656.848 555.374 658.232L554.478 658.603L554.567 658.146L554.215 658.645C550.152 659.296 546.418 659.21 542.32 659.232C537.283 659.295 529.884 659.707 525.087 659.022L524.773 658.545C526.829 657.189 535.797 657.467 538.739 657.424Z"></path>
<path fill="#EADAAE" d="M563.873 648.956C563.88 646.144 562.783 633.88 563.183 632.72L562.973 632.388C564.382 635.812 565.203 639.851 565.647 643.519L564.771 643.23C564.086 645.621 564.524 646.991 563.873 648.956Z"></path>
<path fill="#EADAAE" d="M472.937 643.722C476.299 645.506 478.512 646.753 481.566 648.988L480.589 649.766C478.356 648.767 474.641 645.476 472.937 643.722Z"></path>
<path fill="#14264D" d="M708.615 735.711C714.863 735.31 720.246 735.964 725.838 739.162C731.495 742.347 735.603 747.708 737.205 754C741.132 769.504 731.46 780.864 716.789 784.329C709.546 784.885 702.789 784.485 696.485 780.353C691.03 776.732 687.275 771.057 686.074 764.621C684.891 758.396 686.241 751.957 689.825 746.732C694.567 739.848 700.818 737.208 708.615 735.711Z"></path>
<path fill="#F4F3F1" d="M710.591 745.371C718.629 744.676 725.746 750.538 726.602 758.561C727.458 766.583 721.738 773.815 713.734 774.831C708.413 775.506 703.142 773.253 699.954 768.94C696.765 764.626 696.157 758.926 698.364 754.037C700.57 749.148 705.247 745.834 710.591 745.371Z"></path>
<path fill="#14264D" d="M244.209 736.592C254.651 736.497 276.581 733.931 282.911 743.99C288.739 753.251 285.509 762.63 276.552 768.408C279.467 773.337 283.265 777.773 286.257 783.086L285.941 783.662L283.007 783.742L274.42 783.665C271.379 779.188 268.469 774.883 265.227 770.543L255.614 770.53L255.593 783.701L244.23 783.709L244.209 736.592Z"></path>
<path fill="#F4F3F1" d="M255.652 745.683C263.542 745.542 281.264 745.688 272.377 758.888C267.655 762.141 261.405 761.327 255.676 761.233C255.614 756.05 255.607 750.867 255.652 745.683Z"></path>
<path fill="#14264D" d="M187.053 736.566C198.523 736.504 221.672 733.492 227.1 746.123C232.009 757.545 225.687 766.37 214.623 769.92C209.936 770.551 203.243 770.416 198.37 770.449L198.452 783.705L186.989 783.72L187.053 736.566Z"></path>
<path fill="#F4F3F1" d="M198.37 745.598C206.771 745.469 223.92 745.297 215.144 758.976C210.317 762.021 204.161 761.271 198.44 761.209L198.37 745.598Z"></path>
<path fill="#14264D" d="M548.481 736.593L584.447 736.552L584.442 745.582L559.682 745.587L559.651 755.483C566.843 755.61 574.221 755.555 581.429 755.586L581.418 764.258L559.872 764.265C559.468 766.541 559.659 772.022 559.682 774.592C568.166 774.738 576.965 774.63 585.475 774.643L585.517 783.723L548.458 783.724L548.481 736.593Z"></path>
<path fill="#14264D" d="M302.427 736.569L338.362 736.567L338.372 745.643L313.466 745.606L313.498 755.529L335.506 755.566L335.421 764.251L314.172 764.253L313.81 764.592C313.239 766.598 313.474 772.211 313.498 774.607L339.551 774.536L339.589 783.689L302.413 783.709L302.427 736.569Z"></path>
<path fill="#14264D" d="M508.593 735.733C518.058 735.165 524.199 737.209 531.243 743.759C529.197 745.887 526.318 748.308 524.051 750.316C519.369 746.728 511.862 743.314 506.388 745.899C487.872 754.642 497.265 782.636 520.052 772.956C520.19 769.407 519.422 763.258 520.583 760.021C520.794 759.431 521.613 759.546 522.537 759.411L530.555 759.35L530.537 778.722C520.225 785.04 506.602 787.483 495.904 780.535C490.472 777.049 486.726 771.471 485.554 765.125C482.524 748.9 493.172 738.025 508.593 735.733Z"></path>
<path fill="#14264D" d="M648.646 735.735C658.608 735.202 664.062 737.002 671.537 743.674L664.414 750.402C664.023 750.067 663.625 749.741 663.221 749.421C659.242 746.279 654.662 744.546 649.525 745.262C645.717 745.763 642.276 747.793 639.994 750.884C630.816 763.383 642.826 779.1 657.421 774.316C663.771 772.234 658.065 764.523 660.716 760.021C661.042 759.468 662.444 759.536 663.113 759.467L670.717 759.489L670.745 778.439C661.128 785.78 646.137 787.26 635.945 780.263C630.62 776.578 627.016 770.891 625.956 764.503C623.178 748.506 633.631 738.058 648.646 735.735Z"></path>
<path fill="#14264D" d="M369.838 735.721C377.741 735.179 382.987 736.092 389.983 739.702C389.029 742.626 387.93 745.631 386.909 748.544C382.766 746.475 378.713 745.091 374.01 744.965C370.636 744.875 364.262 745.746 364.548 750.328C366.465 753.413 372.057 755.212 375.686 755.876C387.811 758.095 398.536 766.559 388.747 778.848C385.018 783.53 378.119 784.33 372.259 784.662C364.153 784.304 359.25 783.248 352.356 779.062L356.134 770.484C361.689 773.749 379.329 780.167 381.228 770.257C379.397 765.255 365.06 764.431 360.29 761.386C354.266 758.146 351.998 752.696 354.205 746.044C356.494 739.143 363.449 737.005 369.838 735.721Z"></path>
<path fill="#14264D" d="M803.57 736.554L839.539 736.562L839.536 745.606L815.014 745.638L814.99 757.632C819.99 757.656 831.821 757.315 836.073 757.888L836.627 758.671L836.625 766.656L814.955 766.64L814.992 783.683L803.55 783.718L803.57 736.554Z"></path>
<path fill="#14264D" d="M401.8 736.57L443.496 736.57L443.529 745.651L428.447 745.672L428.501 768.484L428.515 783.675L417.038 783.694L417.005 745.672L401.761 745.642L401.8 736.57Z"></path>
<path fill="#14264D" d="M754.329 736.562L765.726 736.578L765.73 774.302C773.111 774.686 781.777 774.516 789.282 774.573L789.276 783.704C777.763 783.841 765.976 783.716 754.441 783.719L754.329 736.562Z"></path>
<path fill="#14264D" d="M457.321 736.57L468.591 736.595L468.554 783.69L457.342 783.721C457.052 768.304 457.318 752.054 457.321 736.57Z"></path>
</svg>